<?xml version="1.0" encoding="UTF-8"?>
<svg xmlns="http://www.w3.org/2000/svg" xmlns:xlink="http://www.w3.org/1999/xlink" width="60px" height="60px" viewBox="0 0 60 60" version="1.1">
<g id="surface1">
<path style=" stroke:none;fill-rule:evenodd;fill:rgb(5.098039%,36.862745%,95.686275%);fill-opacity:1;" d="M 5.78125 0.257812 C 4.238281 0.738281 2.847656 2.089844 2.363281 3.597656 C 2.128906 4.316406 2.097656 4.789062 2.097656 7.378906 L 2.097656 10.339844 L 10.675781 10.339844 L 10.675781 11.890625 C 10.675781 13.648438 10.851562 13.417969 9.265625 13.710938 C 7.980469 13.949219 6.449219 14.578125 5.183594 15.394531 C 2.777344 16.949219 1.164062 19.121094 0.324219 21.941406 C -0.109375 23.40625 -0.109375 26.25 0.332031 27.734375 C 0.925781 29.753906 2.207031 31.804688 3.753906 33.222656 L 4.242188 33.667969 L 4.242188 47.519531 L 7.457031 44.417969 L 10.675781 41.316406 L 10.675781 48.445312 C 10.675781 55.195312 10.6875 55.621094 10.941406 56.398438 C 11.433594 57.925781 12.824219 59.265625 14.410156 59.742188 C 15.242188 59.996094 15.691406 60 35.335938 60 C 54.984375 60 55.433594 59.996094 56.265625 59.742188 C 57.851562 59.265625 59.238281 57.925781 59.734375 56.398438 C 59.964844 55.679688 60 55.207031 60 52.613281 L 60 49.652344 L 55.710938 49.652344 L 55.710938 27.035156 C 55.710938 4.84375 55.707031 4.402344 55.445312 3.597656 C 54.949219 2.066406 53.5625 0.726562 51.976562 0.25 C 51.140625 0 50.699219 -0.00390625 28.855469 0 C 7.253906 0.0078125 6.5625 0.015625 5.78125 0.257812 Z M 6.652344 2.175781 C 5.707031 2.476562 5.023438 3.03125 4.558594 3.875 C 4.355469 4.242188 4.304688 4.691406 4.265625 6.300781 L 4.21875 8.269531 L 10.699219 8.269531 L 10.652344 6.300781 C 10.601562 4.175781 10.507812 3.835938 9.753906 3.054688 C 9.039062 2.3125 7.554688 1.890625 6.652344 2.175781 Z M 12.023438 2.460938 C 12.1875 2.683594 12.429688 3.210938 12.570312 3.640625 C 12.792969 4.332031 12.820312 4.886719 12.820312 8.925781 L 12.820312 13.4375 L 13.121094 13.5 C 15.007812 13.875 15.574219 14.027344 16.441406 14.390625 C 19.714844 15.765625 22.160156 18.488281 23.140625 21.851562 C 23.574219 23.332031 23.640625 25.476562 23.300781 27.050781 C 22.816406 29.292969 21.882812 31.003906 20.175781 32.765625 L 19.253906 33.71875 L 19.253906 47.519531 L 16.03125 44.414062 L 12.8125 41.3125 L 12.847656 48.492188 C 12.886719 55.5625 12.890625 55.675781 13.175781 56.183594 C 13.796875 57.296875 14.757812 57.859375 16.035156 57.859375 C 17.316406 57.859375 18.273438 57.296875 18.898438 56.183594 C 19.164062 55.703125 19.1875 55.453125 19.226562 52.660156 L 19.269531 49.652344 L 53.570312 49.652344 L 53.535156 26.992188 C 53.5 5.160156 53.488281 4.308594 53.25 3.875 C 52.898438 3.242188 52.382812 2.734375 51.757812 2.40625 L 51.21875 2.128906 L 11.726562 2.058594 Z M 44.742188 5.351562 C 42.351562 6.101562 41.121094 8.789062 42.144531 11.019531 C 42.496094 11.785156 43.480469 12.738281 44.292969 13.097656 C 45.179688 13.492188 46.9375 13.492188 47.828125 13.097656 C 48.636719 12.738281 49.621094 11.789062 49.988281 11.011719 C 50.421875 10.109375 50.402344 8.445312 49.953125 7.5625 C 49.535156 6.742188 48.714844 5.949219 47.878906 5.558594 C 47.070312 5.183594 45.59375 5.085938 44.742188 5.351562 Z M 18.179688 7.238281 L 18.179688 8.269531 L 33.191406 8.269531 L 33.191406 6.203125 L 18.179688 6.203125 Z M 45.117188 7.527344 C 44.472656 7.839844 43.914062 8.664062 43.914062 9.304688 C 43.914062 9.488281 44.050781 9.898438 44.21875 10.214844 C 44.542969 10.835938 45.398438 11.375 46.058594 11.375 C 46.722656 11.375 47.578125 10.835938 47.902344 10.214844 C 48.070312 9.898438 48.203125 9.488281 48.203125 9.304688 C 48.203125 9.121094 48.070312 8.710938 47.902344 8.394531 C 47.578125 7.773438 46.722656 7.238281 46.058594 7.238281 C 45.871094 7.238281 45.445312 7.367188 45.117188 7.527344 Z M 10.171875 15.65625 C 8.183594 15.976562 6.398438 16.890625 4.910156 18.351562 C 3.765625 19.476562 3.160156 20.390625 2.683594 21.714844 C 1.445312 25.152344 2.308594 28.800781 4.96875 31.367188 C 8.664062 34.933594 14.464844 35.03125 18.308594 31.597656 C 21.601562 28.65625 22.316406 23.882812 20.027344 20.105469 C 19.378906 19.035156 17.75 17.4375 16.679688 16.828125 C 14.789062 15.753906 12.328125 15.308594 10.171875 15.65625 Z M 27.832031 16.546875 L 27.832031 17.582031 L 35.335938 17.582031 L 35.335938 15.511719 L 27.832031 15.511719 Z M 10.136719 18.800781 C 7.320312 19.558594 5.320312 22.015625 5.316406 24.722656 C 5.308594 28.1875 8.238281 31.035156 11.808594 31.03125 C 13.425781 31.027344 14.835938 30.46875 16.109375 29.324219 C 18.203125 27.441406 18.757812 24.640625 17.53125 22.109375 C 17.09375 21.199219 15.539062 19.679688 14.628906 19.269531 C 13.191406 18.621094 11.472656 18.441406 10.136719 18.800781 Z M 10.609375 20.859375 C 9.765625 21.128906 9.253906 21.421875 8.71875 21.945312 C 7.105469 23.53125 7.113281 26.164062 8.734375 27.730469 C 10.367188 29.300781 13.128906 29.300781 14.757812 27.730469 C 16.386719 26.15625 16.386719 23.492188 14.757812 21.917969 C 13.738281 20.9375 11.863281 20.457031 10.609375 20.859375 Z M 27.832031 22.753906 L 27.832031 23.789062 L 42.84375 23.789062 L 42.84375 21.71875 L 27.832031 21.71875 Z M 27.832031 28.960938 L 27.832031 29.996094 L 42.84375 29.996094 L 42.84375 27.929688 L 27.832031 27.929688 Z M 27.832031 35.171875 L 27.832031 36.203125 L 42.84375 36.203125 L 42.84375 34.136719 L 27.832031 34.136719 Z M 6.386719 38.742188 L 6.386719 42.472656 L 9.066406 39.890625 L 11.746094 37.304688 L 14.425781 39.890625 L 17.109375 42.472656 L 17.109375 38.742188 C 17.109375 35.242188 17.09375 35.019531 16.875 35.109375 C 16.746094 35.160156 16.15625 35.367188 15.566406 35.570312 C 12.683594 36.546875 9.769531 36.398438 6.621094 35.109375 C 6.398438 35.019531 6.386719 35.242188 6.386719 38.742188 Z M 34.265625 44.480469 L 34.265625 45.515625 L 49.277344 45.515625 L 49.277344 43.445312 L 34.265625 43.445312 Z M 21.398438 53.652344 C 21.398438 55.738281 21.195312 56.730469 20.601562 57.53125 L 20.304688 57.933594 L 37.90625 57.902344 L 55.507812 57.867188 L 56.046875 57.585938 C 56.675781 57.261719 57.191406 56.753906 57.535156 56.121094 C 57.738281 55.75 57.792969 55.304688 57.832031 53.695312 L 57.878906 51.722656 L 21.398438 51.722656 Z M 21.398438 53.652344 "/>
</g>
</svg>
