<?xml version="1.0" encoding="UTF-8"?>
<svg xmlns="http://www.w3.org/2000/svg" xmlns:xlink="http://www.w3.org/1999/xlink" width="60px" height="60px" viewBox="0 0 60 60" version="1.1">
<g id="surface1">
<path style=" stroke:none;fill-rule:evenodd;fill:rgb(5.098039%,36.862745%,95.686275%);fill-opacity:1;" d="M 22.320312 0.332031 C 15.953125 2.679688 13.976562 9.816406 18.359375 14.625 C 23.910156 20.714844 33.996094 16.898438 33.945312 8.726562 C 33.925781 5.304688 32.074219 2.378906 28.925781 0.792969 C 27.292969 -0.0273438 23.929688 -0.261719 22.320312 0.332031 Z M 43.054688 1.746094 C 42.242188 2.460938 42.023438 2.933594 41.894531 4.257812 C 41.722656 6.027344 42.109375 6.835938 43.125 6.835938 C 43.746094 6.835938 43.96875 6.265625 44.121094 4.320312 L 44.210938 3.21875 L 57.609375 3.21875 L 57.609375 16.433594 L 44.210938 16.433594 L 44.050781 12.847656 C 43.914062 9.832031 43.796875 9.207031 43.3125 8.914062 C 42.851562 8.636719 42.640625 8.691406 42.253906 9.195312 C 41.878906 9.691406 41.796875 10.582031 41.875 13.359375 C 41.972656 16.738281 42.015625 16.929688 42.859375 17.761719 L 43.746094 18.632812 L 58.136719 18.632812 L 59.070312 17.605469 L 60 16.578125 L 60 9.992188 C 60 5.554688 59.875 3.136719 59.617188 2.582031 C 58.898438 1.023438 58.070312 0.859375 50.769531 0.859375 L 44.058594 0.859375 Z M 22.1875 2.558594 C 20.90625 3.109375 19.183594 4.835938 18.640625 6.109375 C 18.03125 7.546875 18.113281 10.21875 18.8125 11.734375 C 19.863281 14.015625 22.5625 15.648438 25.265625 15.640625 C 26.511719 15.640625 29.285156 14.4375 30.074219 13.5625 C 31.011719 12.519531 31.914062 10.191406 31.921875 8.792969 C 31.933594 6.273438 30.4375 3.941406 28.03125 2.71875 C 26.636719 2.011719 23.652344 1.929688 22.1875 2.558594 Z M 22.25 5.160156 C 22.132812 5.273438 22.039062 6.964844 22.039062 8.914062 C 22.039062 13.441406 22.082031 13.464844 26.570312 11.179688 C 31.058594 8.898438 31.074219 8.628906 26.847656 6.535156 C 23.785156 5.019531 22.71875 4.699219 22.25 5.160156 Z M 50.011719 5.589844 C 49.449219 6.027344 49.085938 6.675781 48.953125 7.488281 C 48.808594 8.382812 48.597656 8.726562 48.195312 8.726562 C 47.886719 8.726562 47.449219 8.949219 47.21875 9.222656 C 46.6875 9.851562 47.175781 10.726562 48.132812 10.867188 C 48.695312 10.949219 48.816406 11.21875 48.898438 12.566406 C 49.074219 15.507812 51.066406 15.429688 51.066406 12.484375 C 51.066406 11.175781 51.160156 10.957031 51.753906 10.871094 C 52.726562 10.726562 53.21875 9.855469 52.683594 9.222656 C 52.453125 8.949219 51.988281 8.726562 51.644531 8.726562 C 51.15625 8.726562 51.046875 8.539062 51.125 7.859375 C 51.21875 7.054688 51.351562 6.984375 52.980469 6.835938 C 54.597656 6.691406 54.738281 6.617188 54.738281 5.894531 C 54.738281 5.152344 54.628906 5.101562 52.804688 5.015625 C 51.226562 4.941406 50.710938 5.046875 50.011719 5.589844 Z M 23.953125 8.882812 C 23.953125 10.140625 24.03125 10.164062 25.527344 9.378906 L 26.625 8.804688 L 25.625 8.292969 C 24.1875 7.5625 23.953125 7.644531 23.953125 8.882812 Z M 0.410156 10.046875 C -0.136719 10.582031 -0.136719 26.683594 0.410156 27.222656 C 0.949219 27.753906 13.140625 27.753906 13.679688 27.222656 C 14.226562 26.683594 14.226562 10.582031 13.679688 10.046875 C 13.140625 9.511719 0.949219 9.511719 0.410156 10.046875 Z M 2.257812 18.632812 L 2.257812 25.398438 L 12.148438 25.398438 L 12.148438 11.871094 L 2.257812 11.871094 Z M 6.203125 14.230469 C 5.816406 15.222656 6.335938 15.644531 7.953125 15.644531 C 9.75 15.644531 10.59375 15.035156 9.914062 14.230469 C 9.660156 13.925781 8.957031 13.757812 7.953125 13.757812 C 6.855469 13.757812 6.332031 13.898438 6.203125 14.230469 Z M 35.8125 17.800781 C 33.820312 20.445312 33.675781 20.78125 34.300781 21.292969 C 35.039062 21.894531 35.550781 21.546875 37.339844 19.21875 C 39.054688 16.980469 39.304688 15.875 38.121094 15.710938 C 37.625 15.640625 37.054688 16.15625 35.8125 17.800781 Z M 4.570312 17.742188 C 4 17.96875 4.078125 19.316406 4.679688 19.542969 C 4.957031 19.648438 6.171875 19.734375 7.378906 19.734375 C 9.15625 19.734375 9.632812 19.628906 9.878906 19.175781 C 10.070312 18.820312 10.066406 18.417969 9.871094 18.074219 C 9.625 17.636719 9.128906 17.539062 7.269531 17.558594 C 6.003906 17.570312 4.792969 17.652344 4.570312 17.742188 Z M 39.265625 22.292969 C 37.042969 23.988281 36.523438 25.144531 37.898438 25.339844 C 38.847656 25.472656 43.214844 22.078125 42.953125 21.410156 C 42.855469 21.152344 42.773438 20.882812 42.773438 20.808594 C 42.773438 20.738281 42.449219 20.6875 42.054688 20.695312 C 41.660156 20.707031 40.40625 21.425781 39.265625 22.292969 Z M 4.289062 22.09375 C 3.847656 23.226562 4.386719 23.507812 6.996094 23.507812 C 8.847656 23.507812 9.625 23.382812 9.914062 23.039062 C 10.230469 22.660156 10.230469 22.46875 9.914062 22.09375 C 9.625 21.746094 8.847656 21.621094 6.996094 21.621094 C 5.046875 21.621094 4.429688 21.730469 4.289062 22.09375 Z M 22.820312 27.308594 C 18.96875 30.4375 14.683594 33.65625 13.296875 34.464844 C 10.367188 36.171875 9.527344 37.132812 9.484375 38.828125 C 9.457031 39.820312 9.269531 40.167969 8.5 40.667969 C 7.96875 41.011719 7.414062 41.730469 7.253906 42.296875 C 6.496094 44.902344 9.5625 47.183594 11.773438 45.660156 C 12.320312 45.28125 12.601562 45.246094 12.929688 45.515625 C 13.875 46.292969 15.359375 46.460938 16.847656 45.960938 C 18.484375 45.414062 18.347656 45.324219 19.667969 47.820312 C 21.019531 50.378906 23.367188 50.925781 25.09375 49.089844 C 26.132812 47.984375 26.078125 46.992188 24.84375 44.6875 C 24.269531 43.617188 23.871094 42.683594 23.957031 42.609375 C 24.042969 42.539062 27.324219 41.292969 31.25 39.839844 C 35.179688 38.390625 38.621094 37.035156 38.902344 36.835938 C 39.535156 36.378906 39.261719 35.757812 36.027344 30.351562 C 34.15625 27.222656 33.683594 26.632812 33.101562 26.714844 C 32.722656 26.769531 32.363281 27.066406 32.304688 27.375 C 32.242188 27.683594 33.164062 29.59375 34.34375 31.621094 C 35.527344 33.648438 36.539062 35.390625 36.59375 35.496094 C 36.648438 35.601562 33.089844 37 28.6875 38.609375 C 24.28125 40.21875 19.550781 42.164062 18.167969 42.9375 C 14.9375 44.742188 14.511719 44.652344 12.800781 41.8125 C 11.441406 39.558594 11.253906 38.738281 11.910156 37.90625 C 12.253906 37.46875 15.457031 35.464844 15.8125 35.464844 C 15.882812 35.464844 16.394531 36.304688 16.949219 37.332031 C 18.117188 39.496094 18.941406 40.335938 19.632812 40.074219 C 20.429688 39.769531 20.179688 38.582031 18.855469 36.40625 C 17.6875 34.488281 17.644531 34.328125 18.148438 33.828125 C 18.445312 33.53125 21.199219 31.246094 24.269531 28.75 L 29.851562 24.210938 L 30.5625 24.851562 C 31.148438 25.378906 31.355469 25.417969 31.757812 25.089844 C 32.027344 24.871094 32.246094 24.476562 32.246094 24.214844 C 32.246094 23.414062 30.949219 21.621094 30.371094 21.621094 C 30.070312 21.621094 26.671875 24.179688 22.820312 27.308594 Z M 43.242188 26.933594 C 40.25 27.566406 39.902344 27.738281 39.902344 28.570312 C 39.902344 29.53125 40.632812 29.605469 43.816406 28.972656 C 46.476562 28.441406 46.773438 28.3125 46.867188 27.632812 C 46.929688 27.222656 46.785156 26.765625 46.550781 26.617188 C 46.039062 26.300781 46.378906 26.265625 43.242188 26.933594 Z M 3.230469 31.03125 C 3.019531 31.425781 2.898438 35.34375 2.898438 41.875 L 2.898438 52.097656 L 0.1875 52.292969 L 0.1875 54.519531 C 0.1875 56.453125 0.300781 56.894531 1.046875 57.859375 C 2.722656 60.023438 2.523438 60 18.050781 60 C 33.578125 60 33.378906 60.023438 35.054688 57.859375 C 35.800781 56.894531 35.914062 56.453125 35.914062 54.519531 L 35.914062 52.292969 L 33.203125 52.097656 L 33.203125 47.300781 C 33.203125 42.21875 32.960938 41.257812 31.746094 41.488281 C 31.171875 41.597656 31.125 41.953125 31.042969 46.871094 L 30.953125 52.136719 L 5.128906 52.136719 L 5.128906 32.335938 L 9.675781 32.246094 L 14.222656 32.160156 L 14.222656 30.585938 L 8.894531 30.5 C 3.882812 30.421875 3.546875 30.453125 3.230469 31.03125 Z M 43.019531 32.292969 L 41.976562 33.207031 L 41.878906 39.824219 C 41.734375 49.617188 41.515625 49.40625 51.617188 49.25 L 58.140625 49.148438 L 59.070312 48.121094 C 59.855469 47.25 60 46.828125 60 45.378906 C 60 44.046875 59.871094 43.597656 59.425781 43.359375 C 58.488281 42.867188 57.960938 43.476562 57.777344 45.277344 L 57.609375 46.945312 L 44.210938 46.945312 L 44.210938 33.734375 L 57.765625 33.5625 L 57.773438 36.953125 C 57.773438 38.816406 57.898438 40.527344 58.046875 40.761719 C 58.195312 40.992188 58.660156 41.132812 59.078125 41.074219 C 59.824219 40.972656 59.84375 40.886719 59.933594 37.523438 C 59.988281 35.394531 59.878906 33.734375 59.648438 33.183594 C 58.917969 31.449219 58.566406 31.375 51 31.375 L 44.058594 31.375 Z M 48.332031 37.429688 C 46.292969 39.273438 46.578125 42.242188 48.929688 43.65625 C 51.480469 45.1875 54.894531 43.347656 54.894531 40.4375 C 54.894531 37.945312 53.316406 36.40625 50.761719 36.40625 C 49.742188 36.40625 49.21875 36.625 48.332031 37.429688 Z M 49.871094 38.773438 C 49.035156 39.355469 48.878906 41.136719 49.613281 41.738281 C 50.410156 42.390625 52.105469 42.011719 52.644531 41.0625 C 53.089844 40.277344 53.078125 40.144531 52.464844 39.332031 C 51.667969 38.277344 50.84375 38.101562 49.871094 38.773438 Z M 9.675781 42.277344 C 9.457031 42.363281 9.277344 42.777344 9.277344 43.195312 C 9.277344 43.792969 9.445312 43.957031 10.054688 43.957031 C 11.035156 43.957031 11.320312 43.523438 10.875 42.707031 C 10.523438 42.054688 10.371094 42 9.675781 42.277344 Z M 20.820312 43.902344 L 20.082031 44.460938 L 21.128906 46.253906 C 21.917969 47.613281 22.347656 48.046875 22.902344 48.046875 C 23.933594 48.046875 23.851562 47.085938 22.652344 45.015625 C 22.113281 44.089844 21.648438 43.332031 21.617188 43.335938 C 21.585938 43.339844 21.226562 43.59375 20.820312 43.902344 Z M 2.257812 55.136719 C 2.257812 56.84375 3.398438 57.796875 5.433594 57.796875 C 6.796875 57.796875 7.042969 57.707031 7.042969 57.207031 C 7.042969 56.457031 7.847656 55.785156 8.464844 56.019531 C 8.726562 56.117188 9.03125 56.558594 9.144531 56.996094 L 9.347656 57.796875 L 26.753906 57.796875 L 26.957031 56.996094 C 27.070312 56.558594 27.375 56.117188 27.632812 56.019531 C 28.25 55.785156 29.054688 56.457031 29.054688 57.207031 C 29.054688 57.707031 29.304688 57.796875 30.664062 57.796875 C 32.703125 57.796875 33.839844 56.84375 33.839844 55.136719 L 33.839844 54.023438 L 2.257812 54.023438 Z M 2.257812 55.136719 "/>
</g>
</svg>
