<?xml version="1.0" encoding="UTF-8"?>
<svg xmlns="http://www.w3.org/2000/svg" xmlns:xlink="http://www.w3.org/1999/xlink" width="60px" height="60px" viewBox="0 0 60 60" version="1.1">
<g id="surface1">
<path style=" stroke:none;fill-rule:evenodd;fill:rgb(5.098039%,36.862745%,95.686275%);fill-opacity:1;" d="M 28.296875 0.230469 C 24.726562 1.289062 21.554688 4.808594 19.136719 10.402344 C 18.628906 11.582031 18.527344 11.640625 17.460938 11.441406 C 12.359375 10.476562 6.828125 11.117188 4.195312 12.976562 C 1.945312 14.566406 1.304688 15.828125 1.289062 18.691406 C 1.277344 20.496094 1.109375 21.347656 0.628906 22.019531 C -0.105469 23.046875 -0.214844 25.019531 0.402344 26.089844 C 1.003906 27.132812 2.847656 28.074219 4.292969 28.074219 C 5.265625 28.074219 5.703125 28.285156 6.300781 29.03125 L 7.0625 29.984375 L 5.226562 32.351562 C 2.382812 36.023438 1.339844 38.421875 1.320312 41.339844 C 1.296875 44.207031 1.925781 45.453125 4.195312 47.054688 C 6.828125 48.914062 12.359375 49.558594 17.460938 48.59375 C 18.527344 48.390625 18.628906 48.453125 19.140625 49.632812 C 21.011719 53.921875 23.128906 56.804688 25.652344 58.5 C 28.582031 60.464844 31.355469 60.5 34.390625 58.605469 C 35.753906 57.757812 36.410156 57.539062 37.136719 57.683594 C 39.335938 58.132812 42.003906 56.003906 42.003906 53.796875 C 42.003906 53.265625 41.699219 52.367188 41.328125 51.804688 C 40.753906 50.929688 40.710938 50.609375 41.050781 49.589844 C 41.433594 48.433594 41.484375 48.402344 42.777344 48.59375 C 50.515625 49.742188 55.765625 48.511719 58.117188 45.011719 C 58.808594 43.980469 58.949219 43.355469 58.933594 41.339844 C 58.914062 38.421875 57.871094 36.023438 55.027344 32.351562 L 53.191406 29.984375 L 53.953125 29.03125 C 54.566406 28.261719 54.976562 28.074219 56.054688 28.074219 C 57.089844 28.074219 57.683594 27.824219 58.695312 26.96875 C 59.863281 25.976562 60 25.691406 60 24.265625 C 60 23.328125 59.785156 22.433594 59.476562 22.089844 C 59.105469 21.675781 58.953125 20.734375 58.953125 18.863281 C 58.953125 16.519531 58.84375 16.066406 57.988281 14.871094 C 56.660156 13.011719 54.816406 11.976562 51.761719 11.375 C 49.273438 10.882812 46.042969 10.90625 42.703125 11.433594 C 41.492188 11.628906 41.476562 11.617188 40.828125 9.90625 C 38.296875 3.261719 32.691406 -1.070312 28.296875 0.230469 Z M 27.632812 2.515625 C 25.765625 3.429688 23.609375 5.878906 22.058594 8.84375 C 21.308594 10.28125 20.691406 11.59375 20.691406 11.761719 C 20.691406 11.925781 21.832031 12.371094 23.226562 12.746094 C 24.621094 13.121094 26.742188 13.769531 27.941406 14.183594 L 30.125 14.9375 L 32.308594 14.183594 C 33.511719 13.769531 35.632812 13.121094 37.023438 12.746094 C 39.933594 11.960938 39.890625 12.160156 37.976562 8.476562 C 35.167969 3.070312 31.1875 0.777344 27.632812 2.515625 Z M 8.0625 13.292969 C 4.707031 14.179688 3.226562 15.804688 3.226562 18.609375 C 3.222656 20.277344 3.242188 20.308594 4.253906 20.308594 C 6.671875 20.308594 8.289062 21.886719 8.289062 24.238281 C 8.289062 25.226562 8.074219 25.960938 7.667969 26.378906 C 7.074219 26.984375 7.074219 27.042969 7.707031 27.765625 L 8.363281 28.515625 L 9.410156 27.730469 C 9.984375 27.296875 11.695312 25.949219 13.210938 24.734375 L 15.964844 22.527344 L 16.9375 17.972656 C 17.46875 15.464844 17.839844 13.355469 17.757812 13.277344 C 17.339844 12.890625 9.550781 12.902344 8.0625 13.292969 Z M 43.664062 13.085938 C 42.945312 13.164062 42.359375 13.332031 42.367188 13.453125 C 42.375 13.578125 42.808594 15.667969 43.332031 18.101562 L 44.285156 22.527344 L 46.902344 24.609375 C 48.339844 25.753906 49.898438 27.074219 50.363281 27.546875 C 51.335938 28.523438 51.863281 28.609375 52.507812 27.890625 C 52.882812 27.472656 52.859375 27.226562 52.375 26.46875 C 52.050781 25.957031 51.789062 24.871094 51.789062 24.03125 C 51.789062 22.734375 51.964844 22.347656 52.976562 21.410156 C 53.941406 20.515625 54.433594 20.308594 55.597656 20.308594 L 57.03125 20.308594 L 57.03125 18.578125 C 57.03125 16.339844 56.039062 14.914062 53.75 13.863281 C 52.335938 13.214844 51.449219 13.070312 48.511719 13.007812 C 46.566406 12.96875 44.386719 13.003906 43.664062 13.085938 Z M 19.6875 14.890625 C 19.261719 16.136719 18.277344 20.957031 18.453125 20.957031 C 18.519531 20.957031 19.511719 20.394531 20.65625 19.710938 C 21.804688 19.023438 23.773438 17.96875 25.035156 17.363281 C 26.296875 16.757812 27.328125 16.171875 27.332031 16.0625 C 27.332031 15.882812 20.847656 13.839844 20.273438 13.839844 C 20.148438 13.839844 19.886719 14.3125 19.6875 14.890625 Z M 36.152344 14.875 C 34.375 15.414062 32.921875 15.949219 32.921875 16.0625 C 32.925781 16.171875 33.957031 16.757812 35.21875 17.363281 C 36.480469 17.96875 38.449219 19.023438 39.597656 19.710938 C 40.742188 20.394531 41.734375 20.957031 41.800781 20.957031 C 41.976562 20.957031 40.992188 16.136719 40.566406 14.890625 C 40.367188 14.3125 40.019531 13.851562 39.796875 13.863281 C 39.570312 13.878906 37.929688 14.332031 36.152344 14.875 Z M 26.390625 18.824219 C 24.429688 19.777344 21.742188 21.226562 20.414062 22.042969 L 18.003906 23.53125 L 17.789062 26.773438 C 17.671875 28.558594 17.671875 31.476562 17.789062 33.261719 L 18.003906 36.503906 L 20.425781 37.996094 C 21.757812 38.816406 24.488281 40.277344 26.488281 41.246094 L 30.125 43.007812 L 33.765625 41.246094 C 35.765625 40.277344 38.496094 38.816406 39.828125 37.996094 L 42.25 36.503906 L 42.460938 33.261719 C 42.578125 31.476562 42.578125 28.558594 42.460938 26.773438 L 42.25 23.53125 L 39.835938 22.042969 C 37.683594 20.71875 30.570312 17.089844 30.125 17.089844 C 30.03125 17.089844 28.347656 17.871094 26.390625 18.824219 Z M 2.683594 22.722656 C 1.691406 23.640625 1.601562 24.402344 2.371094 25.414062 C 3.503906 26.914062 6.375 26.015625 6.363281 24.167969 C 6.355469 23.203125 6.066406 22.78125 5.082031 22.300781 C 3.988281 21.769531 3.648438 21.828125 2.683594 22.722656 Z M 54.394531 22.722656 C 53.402344 23.640625 53.3125 24.402344 54.082031 25.414062 C 55.214844 26.914062 58.085938 26.015625 58.074219 24.167969 C 58.066406 23.203125 57.777344 22.78125 56.792969 22.300781 C 55.699219 21.769531 55.359375 21.828125 54.394531 22.722656 Z M 28.554688 23.195312 C 24.933594 24.035156 22.675781 26.65625 22.675781 30.015625 C 22.679688 33.964844 25.867188 36.914062 30.125 36.914062 C 38.015625 36.914062 40.507812 27.050781 33.445312 23.78125 C 32.082031 23.152344 29.875 22.886719 28.554688 23.195312 Z M 27.742188 25.367188 C 25.078125 26.625 23.851562 29.714844 25.070312 32.09375 C 27.480469 36.800781 34.816406 35.757812 35.582031 30.601562 C 36.15625 26.726562 31.480469 23.601562 27.742188 25.367188 Z M 12.832031 27.535156 L 10.035156 30.015625 L 12.832031 32.5 L 15.625 34.980469 L 15.730469 32.5 C 15.785156 31.132812 15.785156 28.898438 15.730469 27.535156 L 15.625 25.054688 Z M 44.453125 30.015625 L 44.453125 34.917969 L 45.414062 34.21875 C 47.023438 33.054688 50.042969 30.304688 50.042969 30.007812 C 50.042969 29.714844 47.0625 27.015625 45.410156 25.816406 L 44.453125 25.117188 Z M 32.234375 30.476562 C 31.855469 31.292969 31.386719 31.957031 31.1875 31.957031 C 30.636719 31.957031 30.753906 33.246094 31.324219 33.449219 C 32.597656 33.902344 34.464844 31.753906 34.253906 30.078125 C 34.066406 28.585938 33.015625 28.792969 32.234375 30.476562 Z M 7.136719 32.976562 C 3.484375 37.484375 2.257812 41.863281 3.980469 44.253906 C 4.445312 44.898438 5.546875 45.734375 6.542969 46.195312 C 8.132812 46.929688 8.691406 47.003906 12.726562 47.003906 C 15.222656 47.003906 17.316406 46.863281 17.507812 46.679688 C 17.738281 46.46875 17.527344 44.824219 16.898438 41.863281 L 15.9375 37.371094 L 14.210938 36.097656 C 13.261719 35.398438 11.597656 34.019531 10.511719 33.03125 L 8.542969 31.242188 Z M 50.21875 32.648438 C 49.640625 33.191406 48.074219 34.488281 46.738281 35.523438 L 44.308594 37.410156 L 43.351562 41.882812 C 42.722656 44.832031 42.515625 46.46875 42.746094 46.679688 C 42.9375 46.863281 45.03125 47.003906 47.527344 47.003906 C 51.5625 47.003906 52.121094 46.929688 53.710938 46.195312 C 56.894531 44.71875 57.769531 42.238281 56.441406 38.433594 C 55.769531 36.507812 52.503906 31.832031 51.761719 31.730469 C 51.488281 31.691406 50.792969 32.105469 50.21875 32.648438 Z M 18.828125 41.585938 C 19.398438 44.445312 19.945312 46.195312 20.273438 46.195312 C 20.847656 46.195312 27.332031 44.152344 27.332031 43.972656 C 27.328125 43.859375 26.296875 43.273438 25.035156 42.667969 C 23.773438 42.066406 21.804688 41.007812 20.65625 40.324219 C 19.511719 39.636719 18.519531 39.078125 18.453125 39.078125 C 18.386719 39.078125 18.554688 40.203125 18.828125 41.585938 Z M 39.871094 40.144531 C 38.984375 40.714844 37.058594 41.761719 35.59375 42.472656 C 34.128906 43.1875 32.929688 43.859375 32.925781 43.972656 C 32.921875 44.085938 34.21875 44.546875 35.804688 45.003906 C 40.558594 46.363281 40.152344 46.347656 40.5625 45.15625 C 41.109375 43.554688 41.953125 39.074219 41.703125 39.09375 C 41.582031 39.105469 40.757812 39.578125 39.871094 40.144531 Z M 27.152344 46.0625 C 25.464844 46.648438 23.324219 47.3125 22.390625 47.53125 C 21.457031 47.753906 20.691406 48.078125 20.691406 48.253906 C 20.691406 48.429688 21.308594 49.75 22.058594 51.1875 C 24.332031 55.539062 27.410156 58.175781 30.199219 58.160156 C 31.824219 58.152344 34.179688 56.847656 34.019531 56.042969 C 33.480469 53.3125 33.566406 52.453125 34.476562 51.449219 C 35.421875 50.410156 37.476562 49.566406 38.324219 49.867188 C 38.636719 49.976562 38.941406 49.679688 39.1875 49.035156 C 39.394531 48.484375 39.523438 48.003906 39.476562 47.972656 C 39.425781 47.941406 38.597656 47.71875 37.636719 47.480469 C 36.679688 47.242188 34.613281 46.585938 33.054688 46.019531 L 30.214844 44.996094 Z M 36.09375 52.546875 C 35.695312 53.015625 35.367188 53.578125 35.367188 53.796875 C 35.367188 54.535156 36.808594 55.902344 37.585938 55.902344 C 38.925781 55.902344 39.910156 55.011719 39.910156 53.796875 C 39.910156 51.792969 37.425781 50.976562 36.09375 52.546875 Z M 36.09375 52.546875 "/>
</g>
</svg>
